<svg width="160" height="64" viewBox="0 0 160 64" fill="none" xmlns="http://www.w3.org/2000/svg">
<path d="M90.9744 45.4001H95.848C97.2695 45.4001 98.2984 45.7201 98.9347 46.3601C99.5845 46.9867 99.9094 48.0001 99.9094 49.4001V50.0001C99.9094 51.4001 99.5845 52.4201 98.9347 53.0601C98.2984 53.6867 97.2695 54.0001 95.848 54.0001H87.3192V40.0001H98.5894V42.8001H90.9744V45.4001ZM96.2542 49.4001C96.2542 48.6001 95.848 48.2001 95.0358 48.2001H90.9744V51.2001H95.0358C95.848 51.2001 96.2542 50.8001 96.2542 50.0001V49.4001Z" fill="#F56B5C"/>
<path d="M108.539 43.4001H112.296V54.0001H108.742V48.2001L105.29 54.0001H101.533V43.4001H105.087V49.2001L108.539 43.4001Z" fill="#F56B5C"/>
<path d="M113.715 51.4001C116.301 51.6001 118.331 51.7001 119.807 51.7001C120.01 51.7001 120.179 51.6334 120.315 51.5001C120.45 51.3667 120.518 51.2001 120.518 51.0001V50.7001C120.518 50.5001 120.45 50.3334 120.315 50.2001C120.179 50.0667 120.01 50.0001 119.807 50.0001H115.339V47.5001H119.401C119.604 47.5001 119.773 47.4334 119.908 47.3001C120.044 47.1667 120.111 47.0001 120.111 46.8001V46.6001C120.111 46.4001 120.044 46.2334 119.908 46.1001C119.773 45.9667 119.604 45.9001 119.401 45.9001H113.918V43.4001H120.619C121.526 43.4001 122.257 43.6667 122.812 44.2001C123.381 44.7201 123.665 45.3067 123.665 45.9601C123.665 47.2934 123.056 48.1067 121.838 48.4001C122.447 48.5067 122.968 48.8001 123.401 49.2801C123.848 49.7601 124.071 50.4267 124.071 51.2801C124.071 52.1334 123.794 52.8334 123.239 53.3801C122.684 53.9267 121.946 54.2001 121.025 54.2001C118.764 54.2001 116.328 54.0667 113.715 53.8001V51.4001Z" fill="#F56B5C"/>
<path d="M132.698 47.3001V43.4001H136.251V54.0001H132.698V50.0001H129.042V54.0001H125.489V43.4001H129.042V47.3001H132.698Z" fill="#F56B5C"/>
<path d="M142.443 45.7001C141.901 45.7001 141.63 45.9667 141.63 46.5001V47.6001H145.082V46.5001C145.082 45.9667 144.812 45.7001 144.27 45.7001H142.443ZM148.23 53.8001C145.617 54.0667 143.248 54.2001 141.123 54.2001C140.202 54.2001 139.464 53.9267 138.909 53.3801C138.354 52.8334 138.077 52.1067 138.077 51.2001V46.4001C138.077 45.4001 138.361 44.6201 138.929 44.0601C139.512 43.4867 140.31 43.2001 141.326 43.2001H145.387C146.402 43.2001 147.194 43.4867 147.763 44.0601C148.345 44.6201 148.636 45.4001 148.636 46.4001V50.1001H141.63V50.9001C141.63 51.1001 141.698 51.2667 141.833 51.4001C141.969 51.5334 142.138 51.6001 142.341 51.6001C143.681 51.6001 145.644 51.5001 148.23 51.3001V53.8001Z" fill="#F56B5C"/>
<path d="M160 53.8001C157.468 54.0667 155.235 54.2001 153.299 54.2001C152.378 54.2001 151.64 53.9267 151.085 53.3801C150.53 52.8334 150.253 52.1067 150.253 51.2001V46.6001C150.253 45.6001 150.537 44.8201 151.106 44.2601C151.688 43.6867 152.486 43.4001 153.502 43.4001H160V46.1001H154.619C154.077 46.1001 153.806 46.3667 153.806 46.9001V50.8001C153.806 51.0001 153.874 51.1667 154.009 51.3001C154.145 51.4334 154.314 51.5001 154.517 51.5001C155.736 51.5001 157.563 51.4001 160 51.2001V53.8001Z" fill="#F56B5C"/>
<path d="M87.3192 8.00006H105.006C107.895 8.00006 110.017 8.64292 111.373 9.92863C112.729 11.1858 113.407 13.1143 113.407 15.7143C113.407 17.4286 113.024 18.8286 112.257 19.9143C111.491 20.9715 110.548 21.7143 109.427 22.1429C111.815 22.7715 113.436 24.3143 114.291 26.7715C114.586 27.6572 114.733 28.6858 114.733 29.8572C114.733 32.6572 114.055 34.7143 112.699 36.0286C111.343 37.3429 109.221 38.0001 106.332 38.0001H87.3192V8.00006ZM106.774 28.5715C106.774 26.8572 105.89 26.0001 104.121 26.0001H95.2781V32.0001H104.121C105.89 32.0001 106.774 31.1429 106.774 29.4286V28.5715ZM105.448 16.5715C105.448 14.8572 104.564 14.0001 102.795 14.0001H95.2781V20.0001H102.795C104.564 20.0001 105.448 19.1429 105.448 17.4286V16.5715Z" fill="#F56B5C"/>
<path d="M127.527 38.0001H119.81V27.4001H126.917C127.824 27.4001 128.555 27.6667 129.111 28.2001C129.679 28.7201 129.963 29.3067 129.963 29.9601C129.963 30.6134 129.821 31.1467 129.537 31.5601C129.253 31.9734 128.853 32.2534 128.339 32.4001C128.948 32.5067 129.469 32.8001 129.902 33.2801C130.349 33.7601 130.573 34.4001 130.573 35.2001C130.573 36.0001 130.288 36.6667 129.72 37.2001C129.165 37.7334 128.434 38.0001 127.527 38.0001ZM127.019 34.6001C127.019 34.4001 126.951 34.2334 126.816 34.1001C126.68 33.9667 126.511 33.9001 126.308 33.9001H123.364V35.6001H126.308C126.511 35.6001 126.68 35.5334 126.816 35.4001C126.951 35.2667 127.019 35.1001 127.019 34.9001V34.6001ZM126.41 30.5001C126.41 30.3001 126.342 30.1334 126.207 30.0001C126.071 29.8667 125.902 29.8001 125.699 29.8001H123.364V31.6001H125.699C125.902 31.6001 126.071 31.5334 126.207 31.4001C126.342 31.2667 126.41 31.1001 126.41 30.9001V30.5001Z" fill="#1E3556"/>
<path d="M136.251 35.4001C136.968 35.4001 137.78 35.2667 138.687 35.0001V33.8001H135.743C135.54 33.8001 135.371 33.8667 135.235 34.0001C135.1 34.1334 135.032 34.3001 135.032 34.5001V34.7001C135.032 34.9001 135.1 35.0667 135.235 35.2001C135.371 35.3334 135.54 35.4001 135.743 35.4001H136.251ZM132.494 27.6001C134.971 27.3334 137.205 27.2001 139.195 27.2001C140.116 27.2001 140.853 27.4734 141.409 28.0201C141.964 28.5667 142.241 29.2934 142.241 30.2001V38.0001H139.094L138.89 37.0001C138.254 37.4134 137.598 37.7201 136.921 37.9201C136.257 38.1067 135.696 38.2001 135.235 38.2001H134.525C133.604 38.2001 132.866 37.9267 132.311 37.3801C131.756 36.8334 131.478 36.1067 131.478 35.2001V34.3001C131.478 33.3934 131.756 32.6667 132.311 32.1201C132.866 31.5734 133.604 31.3001 134.525 31.3001H138.687V30.5001C138.687 30.3001 138.62 30.1334 138.484 30.0001C138.349 29.8667 138.18 29.8001 137.977 29.8001C137.097 29.8001 136.122 29.8401 135.052 29.9201C133.997 30.0001 133.144 30.0601 132.494 30.1001V27.6001Z" fill="#1E3556"/>
<path d="M144.063 38.0001V27.4001H147.617V35.3001H149.952V27.4001H153.506V35.3001H155.841V27.4001H159.395V38.0001H144.063Z" fill="#1E3556"/>
<rect x="18.2761" y="3.05176e-05" width="64.9817" height="5.98299" fill="#F56B5C"/>
<rect x="18.2761" y="55.8412" width="64.9817" height="7.97732" fill="#F56B5C"/>
<rect x="28.4295" y="39.8866" width="14.2147" height="13.9603" fill="#1E3556"/>
<rect x="58.8896" y="7.97734" width="14.2147" height="13.9603" fill="#1E3556"/>
<rect x="46.7056" y="39.8866" width="26.3988" height="13.9603" fill="#F56B5C"/>
<rect x="28.4295" y="7.97734" width="26.3988" height="13.9603" fill="#F56B5C"/>
<rect x="28.4295" y="29.915" width="22.3375" height="1.99433" fill="#F56B5C"/>
<rect x="28.4295" y="32.9065" width="16.2454" height="1.99433" fill="#F56B5C"/>
<rect x="28.4295" y="35.8979" width="12.1841" height="1.99433" fill="#F56B5C"/>
<rect x="52.7976" y="30.9121" width="20.3068" height="6.98015" fill="#1E3556"/>
<rect x="28.4295" y="24.9291" width="44.6749" height="3.98866" fill="#1E3556"/>
<path d="M7.18866 11.73L7.18866 7.82001C7.18866 6.63001 7.46483 5.76867 8.01718 5.23601C8.55801 4.69201 9.43256 4.42001 10.6408 4.42001L11.6765 4.42001C12.8847 4.42001 13.765 4.69201 14.3174 5.23601C14.8582 5.76867 15.1286 6.63001 15.1286 7.82001L15.1286 14.79L3.04608 14.79L3.04608 11.73L7.18866 11.73ZM15.1286 7.7713e-06L15.1286 3.06001L3.04608 3.06001L3.04608 7.62939e-06L15.1286 7.7713e-06ZM10.6408 7.48001C9.95038 7.48001 9.60517 7.82001 9.60517 8.50001L9.60517 11.73L12.7121 11.73L12.7121 8.50001C12.7121 7.82001 12.3669 7.48001 11.6765 7.48001L10.6408 7.48001Z" fill="#1E3556"/>
<path d="M15.2301 20.5L15.2301 23.5L5.48286 23.5L5.48286 27L3.04605 27L3.04605 17L5.48286 17L5.48286 20.5L15.2301 20.5Z" fill="#1E3556"/>
<path d="M15.7073 31.7588L8.28517 31.7588L15.7073 35.8272L15.7073 39.0481L3.62476 39.0481L3.62476 35.9968L11.0469 35.9968L3.62476 31.9283L3.62476 28.7075L15.7073 28.7075L15.7073 31.7588ZM2.76172 34.8101C2.76172 36.2793 2.01375 37.0139 0.517822 37.0139L-8.91712e-08 37.0139L-1.85773e-07 34.8101L0.431519 34.8101C0.604126 34.8101 0.747966 34.7536 0.863038 34.6406C0.97811 34.5276 1.03565 34.3863 1.03565 34.2168L1.03565 33.7083C1.03565 33.5387 0.97811 33.3975 0.863038 33.2845C0.747966 33.1715 0.604126 33.115 0.431518 33.115L-2.60083e-07 33.115L-3.56685e-07 30.9112L0.517822 30.9112C2.01375 30.9112 2.76172 31.6458 2.76172 33.115L2.76172 34.8101Z" fill="#F56B5C"/>
<path d="M15.2301 49.7945L15.2301 53L3.04605 48.6438L3.04605 45.3562L15.2301 41L15.2301 44.2055L13.0544 44.9452L13.0544 49.0548L15.2301 49.7945ZM10.7916 48.3151L10.7916 45.6849L6.70127 47L10.7916 48.3151Z" fill="#1E3556"/>
<path d="M14.8869 54C15.1157 56.6548 15.2301 58.8571 15.2301 60.6071C15.2301 61.7738 14.967 62.631 14.4407 63.1786C13.9145 63.7262 13.0907 64 11.9696 64L6.47817 64C5.27693 64 4.40745 63.7202 3.86975 63.1607C3.32061 62.5893 3.04604 61.6786 3.04604 60.4286L3.04604 54L5.44853 54L5.44853 59.7143C5.44853 60.4286 5.79175 60.7857 6.47817 60.7857L11.9696 60.7857C12.2327 60.7857 12.4444 60.7083 12.6045 60.5536C12.7533 60.3869 12.8276 60.1786 12.8276 59.9286C12.8276 59.6786 12.8276 59.4048 12.8276 59.1071C12.8162 58.8095 12.8047 58.5 12.7933 58.1786C12.7819 57.8571 12.7704 57.5357 12.759 57.2143C12.7475 56.881 12.7246 56.4583 12.6903 55.9464C12.656 55.4226 12.616 54.7738 12.5702 54L14.8869 54Z" fill="#1E3556"/>
</svg>
